<?xml version="1.0" standalone="no"?>
<!DOCTYPE svg PUBLIC "-//W3C//DTD SVG 20010904//EN"
 "http://www.w3.org/TR/2001/REC-SVG-20010904/DTD/svg10.dtd">
<svg version="1.0" xmlns="http://www.w3.org/2000/svg"
 width="1280.000000pt" height="640.000000pt" viewBox="0 0 1280.000000 640.000000"
 preserveAspectRatio="xMidYMid meet">
<metadata>
Created by potrace 1.15, written by Peter Selinger 2001-2017
</metadata>
<g transform="translate(0.000000,640.000000) scale(0.100000,-0.100000)"
fill="#000000" stroke="none">
<path d="M4581 5443 c-1 -68 1 -73 20 -73 18 0 20 4 13 32 -3 18 -12 51 -19
73 l-13 40 -1 -72z"/>
<path d="M5424 5420 c-458 -17 -1047 -82 -1429 -156 -355 -68 -825 -221 -910
-295 -11 -10 -67 -40 -125 -67 -268 -127 -399 -191 -715 -354 -424 -218 -443
-224 -740 -232 -345 -9 -633 -65 -817 -157 -57 -29 -68 -42 -48 -54 6 -4 -9
-31 -34 -63 -114 -148 -321 -545 -406 -777 -12 -33 -39 -82 -59 -110 -28 -36
-51 -89 -86 -195 l-49 -145 12 -210 c11 -187 10 -215 -4 -255 -19 -53 -14
-180 11 -300 14 -69 70 -197 99 -228 10 -10 82 -14 292 -18 l279 -6 180 -43
c99 -24 283 -67 409 -97 l228 -53 28 -55 c86 -170 237 -300 417 -358 156 -51
576 -74 793 -43 138 19 259 87 377 209 l62 64 328 -11 c181 -6 395 -18 477
-26 134 -14 183 -14 509 -1 199 9 379 13 400 10 24 -4 42 -14 49 -28 59 -112
191 -259 301 -335 114 -78 178 -98 412 -126 201 -24 331 -20 635 21 156 21
356 196 459 401 l31 62 52 5 c72 8 519 33 930 51 l336 15 55 -25 c100 -44 202
-58 376 -52 169 5 266 25 370 73 66 31 5 29 1416 44 l900 10 24 -32 c52 -68
148 -155 201 -181 50 -24 73 -28 245 -38 258 -17 410 -4 500 40 64 32 167 130
220 209 23 35 30 39 96 50 88 15 191 67 245 124 l39 40 -97 -5 c-54 -3 -98 -2
-98 3 0 11 59 47 90 55 25 6 25 6 26 128 1 109 4 133 33 222 26 80 34 123 38
212 l5 112 -41 7 c-23 4 -44 11 -48 17 -6 10 25 41 49 49 19 7 -18 167 -45
196 -12 13 -21 27 -20 30 1 4 -6 36 -17 72 -10 36 -26 107 -35 159 -27 164
-108 313 -204 376 -66 44 -268 130 -431 183 -331 107 -411 132 -585 182 -290
82 -471 147 -750 266 -5 2 -10 35 -11 72 -1 108 -35 152 -144 189 -50 16 -167
23 -235 12 -13 -2 -111 62 -280 182 -143 102 -307 217 -365 256 -369 245 -751
432 -1031 503 -307 79 -906 151 -1694 206 -267 18 -1153 27 -1481 14z m6714
-2217 c-10 -2 -26 -2 -35 0 -10 3 -2 5 17 5 19 0 27 -2 18 -5z m147 -43 c3 -6
-1 -7 -9 -4 -18 7 -21 14 -7 14 6 0 13 -4 16 -10z m-3087 -17 c-10 -2 -26 -2
-35 0 -10 3 -2 5 17 5 19 0 27 -2 18 -5z m2682 2 c0 -2 -10 -9 -22 -15 -22
-11 -22 -10 -4 4 21 17 26 19 26 11z m471 -31 c9 -11 2 -9 -18 6 -18 13 -33
25 -33 27 0 8 38 -17 51 -33z m-2978 19 c-7 -2 -21 -2 -30 0 -10 3 -4 5 12 5
17 0 24 -2 18 -5z m300 -10 c-7 -2 -19 -2 -25 0 -7 3 -2 5 12 5 14 0 19 -2 13
-5z m150 -10 c-7 -2 -19 -2 -25 0 -7 3 -2 5 12 5 14 0 19 -2 13 -5z m210 -10
c-7 -2 -19 -2 -25 0 -7 3 -2 5 12 5 14 0 19 -2 13 -5z m104 -9 c-3 -3 -12 -4
-19 -1 -8 3 -5 6 6 6 11 1 17 -2 13 -5z m1663 3 c0 -1 -28 -29 -62 -62 l-63
-60 60 63 c55 58 65 67 65 59z m-1467 -14 c-7 -2 -19 -2 -25 0 -7 3 -2 5 12 5
14 0 19 -2 13 -5z m2068 -10 c13 -16 12 -17 -3 -4 -10 7 -18 15 -18 17 0 8 8
3 21 -13z m-3263 0 c-10 -2 -26 -2 -35 0 -10 3 -2 5 17 5 19 0 27 -2 18 -5z
m1295 0 c-7 -2 -19 -2 -25 0 -7 3 -2 5 12 5 14 0 19 -2 13 -5z m-985 -10 c-10
-2 -28 -2 -40 0 -13 2 -5 4 17 4 22 1 32 -1 23 -4z m1179 1 c-3 -3 -12 -4 -19
-1 -8 3 -5 6 6 6 11 1 17 -2 13 -5z m-999 -11 c-10 -2 -28 -2 -40 0 -13 2 -5
4 17 4 22 1 32 -1 23 -4z m1115 0 c-7 -2 -21 -2 -30 0 -10 3 -4 5 12 5 17 0
24 -2 18 -5z m320 -10 c-18 -2 -48 -2 -65 0 -18 2 -4 4 32 4 36 0 50 -2 33 -4z
m-1131 -20 c-10 -4 -4 -16 20 -42 l33 -36 -37 34 c-42 38 -47 51 -20 50 11 0
13 -2 4 -6z m-202 -28 c13 -14 19 -25 14 -25 -8 1 -50 50 -41 50 2 0 14 -11
27 -25z m388 18 c-10 -2 -28 -2 -40 0 -13 2 -5 4 17 4 22 1 32 -1 23 -4z
m-1010 -10 c-10 -2 -28 -2 -40 0 -13 2 -5 4 17 4 22 1 32 -1 23 -4z m1340 0
c-10 -2 -26 -2 -35 0 -10 3 -2 5 17 5 19 0 27 -2 18 -5z m-1160 -10 c-10 -2
-28 -2 -40 0 -13 2 -5 4 17 4 22 1 32 -1 23 -4z m1345 0 c-7 -2 -21 -2 -30 0
-10 3 -4 5 12 5 17 0 24 -2 18 -5z m-1035 -10 c-10 -2 -26 -2 -35 0 -10 3 -2
5 17 5 19 0 27 -2 18 -5z m1289 -9 c-3 -3 -12 -4 -19 -1 -8 3 -5 6 6 6 11 1
17 -2 13 -5z m1603 -14 c6 -11 8 -20 6 -20 -3 0 -10 9 -16 20 -6 11 -8 20 -6
20 3 0 10 -9 16 -20z m-1463 4 c-3 -3 -12 -4 -19 -1 -8 3 -5 6 6 6 11 1 17 -2
13 -5z m539 -56 l29 -33 -32 29 c-31 28 -38 36 -30 36 2 0 16 -15 33 -32z
m-1068 15 c-10 -2 -26 -2 -35 0 -10 3 -2 5 17 5 19 0 27 -2 18 -5z m170 -10
c-16 -2 -40 -2 -55 0 -16 2 -3 4 27 4 30 0 43 -2 28 -4z m339 -10 c-20 -2 -52
-2 -70 0 -17 2 0 4 38 4 39 0 53 -2 32 -4z m549 -65 l29 -33 -32 29 c-31 28
-38 36 -30 36 2 0 16 -15 33 -32z m-96 -13 c19 -19 32 -35 29 -35 -3 0 -20 16
-39 35 -19 19 -32 35 -29 35 3 0 20 -16 39 -35z m1165 -59 c6 -4 1 -4 -10 2
-11 6 -29 21 -40 34 -19 22 -19 22 10 -2 17 -14 35 -29 40 -34z m-1092 -43
c-3 -7 -6 -13 -8 -13 -2 0 -5 6 -8 13 -3 8 1 14 8 14 7 0 11 -6 8 -14z m-5306
-1619 c-3 -3 -12 -4 -19 -1 -8 3 -5 6 6 6 11 1 17 -2 13 -5z"/>
</g>
</svg>
