<?xml version="1.0" standalone="no"?>
<!DOCTYPE svg PUBLIC "-//W3C//DTD SVG 20010904//EN"
 "http://www.w3.org/TR/2001/REC-SVG-20010904/DTD/svg10.dtd">
<svg version="1.0" xmlns="http://www.w3.org/2000/svg"
 width="1280.000000pt" height="640.000000pt" viewBox="0 0 1280.000000 640.000000"
 preserveAspectRatio="xMidYMid meet">
<metadata>
Created by potrace 1.15, written by Peter Selinger 2001-2017
</metadata>
<g transform="translate(0.000000,640.000000) scale(0.100000,-0.100000)"
fill="#000000" stroke="none">
<path d="M6082 6119 c-66 -33 -97 -87 -97 -169 0 -84 27 -129 99 -165 l50 -25
1881 0 1881 0 50 25 c67 34 97 80 102 159 3 54 0 66 -26 107 -20 31 -45 53
-74 68 l-44 21 -1890 0 -1889 0 -43 -21z"/>
<path d="M11080 5480 c-300 -4 -1413 -13 -2475 -20 -1062 -6 -2207 -15 -2545
-19 l-615 -7 -59 -28 c-80 -39 -198 -154 -294 -285 -169 -233 -710 -922 -743
-947 -8 -6 -488 -37 -1229 -78 -668 -37 -1278 -72 -1355 -77 -77 -5 -186 -10
-243 -10 l-103 0 -40 -36 c-21 -19 -60 -70 -85 -112 -78 -129 -151 -235 -181
-263 -19 -18 -59 -36 -118 -53 -206 -60 -297 -130 -377 -292 -36 -72 -43 -98
-46 -157 l-4 -71 56 -64 c68 -78 73 -114 27 -177 -57 -79 -103 -94 -199 -65
-82 26 -107 20 -149 -36 -15 -21 -87 -97 -160 -169 -102 -102 -133 -140 -138
-166 -5 -25 4 -62 34 -146 48 -139 73 -176 131 -203 100 -45 109 -52 154 -120
31 -46 54 -71 72 -75 24 -6 191 3 204 11 4 2 127 295 275 650 l268 645 851 -2
851 -3 491 -650 490 -650 2471 -3 2471 -2 427 650 c235 358 431 653 436 656 4
2 128 0 276 -5 147 -6 437 -15 643 -21 206 -6 407 -13 446 -16 l71 -5 404
-634 404 -634 229 0 229 -1 64 32 c35 17 86 52 113 77 72 67 95 127 120 309
11 84 24 160 27 170 11 30 35 52 58 52 42 0 85 68 85 136 0 39 -29 74 -61 74
-34 0 -57 18 -64 52 -11 51 -33 86 -63 102 -43 22 -177 38 -287 35 l-100 -4
-7 195 c-19 552 -50 1173 -68 1345 -6 55 -19 134 -30 175 -34 136 -60 412 -60
646 0 109 -2 124 -23 155 -52 78 -182 134 -329 142 -45 3 -328 1 -628 -3z
m410 -356 c0 -8 160 -1105 166 -1141 l6 -33 -886 0 -886 0 0 590 0 590 800 0
c440 0 800 -3 800 -6z m-2090 -418 l0 -413 -137 -167 -138 -166 -827 0 -828 0
0 575 0 575 743 3 c408 1 842 3 965 5 l222 2 0 -414z m-2461 376 c2 -1 1 -152
-3 -334 l-7 -333 -121 -235 c-66 -129 -125 -241 -130 -248 -8 -9 -167 -12
-757 -10 l-746 3 -3 217 -2 217 -140 3 -140 3 251 350 c138 193 257 357 264
365 12 13 105 14 772 9 417 -3 760 -6 762 -7z"/>
<path d="M1985 2863 c-453 -41 -855 -316 -1061 -726 -44 -86 -88 -220 -111
-334 -24 -122 -24 -368 0 -483 57 -269 174 -488 362 -675 180 -181 373 -288
635 -352 92 -23 127 -27 275 -27 128 -1 191 4 255 17 378 80 689 300 876 619
301 511 218 1163 -199 1580 -211 211 -462 333 -764 373 -108 14 -177 16 -268
8z m48 -700 c4 -38 7 -120 7 -183 l0 -115 -64 -30 -64 -30 -131 127 c-72 70
-131 132 -131 136 0 12 75 65 139 96 53 27 177 64 217 65 19 1 22 -6 27 -66z
m221 47 c80 -20 189 -72 241 -114 l30 -25 -129 -129 -129 -130 -51 24 c-28 13
-56 24 -62 24 -14 0 -24 102 -24 253 0 137 -7 131 124 97z m-411 -490 c-1 -8
-8 -36 -15 -62 -11 -44 -15 -48 -42 -48 -41 0 -304 20 -343 26 l-31 5 14 59
c20 86 56 169 104 239 l41 62 137 -133 c75 -73 136 -140 135 -148z m788 238
c66 -91 114 -209 125 -309 l7 -61 -109 7 c-60 3 -146 8 -191 11 l-83 6 -11 41
c-6 23 -16 51 -24 62 -11 19 -2 31 112 153 69 72 129 132 134 132 5 0 23 -19
40 -42z m-988 -434 c100 -9 182 -16 182 -17 0 -1 11 -24 23 -50 l23 -49 -142
-149 c-78 -82 -145 -149 -149 -149 -5 0 -30 32 -56 71 -54 82 -101 208 -110
298 l-7 61 27 0 c15 0 109 -7 209 -16z m975 -21 c163 -7 155 0 127 -108 -27
-103 -125 -285 -154 -285 -9 0 -261 293 -261 303 0 2 9 25 20 51 l21 46 52 0
c29 0 116 -3 195 -7z m-227 -313 l130 -155 -28 -22 c-72 -58 -214 -115 -317
-128 l-56 -7 1 93 c1 52 4 148 8 213 l6 119 47 14 c26 7 50 18 53 24 4 5 11 9
16 7 5 -2 68 -73 140 -158z m-390 130 l37 -13 -5 -151 c-2 -83 -6 -179 -9
-214 l-6 -63 -36 6 c-74 13 -169 47 -232 85 -120 73 -125 50 45 220 83 83 154
149 160 147 5 -3 26 -10 46 -17z"/>
<path d="M10220 2860 c-312 -38 -561 -159 -781 -379 -228 -228 -350 -490 -378
-809 -52 -591 312 -1149 874 -1340 156 -53 242 -67 425 -66 236 0 391 37 596
143 568 292 837 955 637 1566 -124 380 -437 693 -823 825 -154 52 -395 79
-550 60z m80 -777 c0 -82 3 -165 6 -185 5 -30 3 -38 -9 -38 -8 0 -40 -13 -70
-29 l-55 -29 -133 134 c-152 152 -149 132 -29 203 78 46 196 87 263 90 l27 1
0 -147z m270 112 c77 -26 205 -101 205 -121 0 -6 -54 -67 -120 -137 l-120
-127 -49 25 c-27 14 -58 25 -68 25 -16 0 -18 9 -18 63 0 35 -3 119 -7 187 l-6
123 53 -6 c29 -4 88 -18 130 -32z m-511 -408 l54 -55 -19 -61 -19 -61 -40 1
c-72 0 -345 25 -352 32 -20 21 46 201 109 293 l42 63 85 -79 c48 -43 110 -103
140 -133z m848 151 c65 -96 99 -188 117 -311 l5 -39 -112 6 c-62 4 -149 9
-194 12 l-82 6 -7 31 c-4 18 -14 46 -22 64 l-15 32 124 130 c68 71 129 130
134 130 6 1 29 -27 52 -61z m-1012 -413 c88 -8 167 -15 175 -15 13 0 60 -83
60 -105 0 -4 -64 -72 -142 -152 l-143 -145 -33 39 c-64 73 -119 210 -137 341
l-7 52 34 0 c18 0 105 -7 193 -15z m988 -22 l137 -6 0 -26 c0 -82 -71 -254
-134 -326 -30 -35 -36 -38 -49 -25 -15 16 -214 255 -235 281 -11 14 -9 25 10
63 l22 46 56 0 c31 0 118 -3 193 -7z m-233 -309 c155 -182 154 -166 5 -240
-83 -41 -195 -73 -254 -74 -24 0 -24 0 -18 83 4 45 7 140 7 210 0 113 2 128
18 133 13 4 100 38 109 43 1 1 61 -69 133 -155z m-392 129 l43 -18 -7 -210
c-4 -116 -8 -212 -10 -214 -2 -2 -36 4 -77 13 -110 25 -287 115 -287 146 0 11
279 300 289 300 3 0 25 -8 49 -17z"/>
<path d="M4032 1599 c-56 -11 -98 -41 -122 -89 -23 -46 -26 -119 -6 -158 19
-36 65 -78 99 -91 20 -8 697 -11 2225 -11 2121 0 2199 1 2232 19 127 67 133
237 12 309 l-47 27 -2175 1 c-1196 1 -2194 -2 -2218 -7z"/>
</g>
</svg>
